<svg width="50" height="50" viewBox="0 0 50 50" fill="none" xmlns="http://www.w3.org/2000/svg">
<path fill-rule="evenodd" clip-rule="evenodd" d="M5.79639 0.580261C3.03496 0.580261 0.796387 2.81884 0.796387 5.58026V44.4603C0.796387 47.2217 3.03496 49.4603 5.79639 49.4603H44.6764C47.4378 49.4603 49.6764 47.2217 49.6764 44.4603V5.58026C49.6764 2.81884 47.4378 0.580261 44.6764 0.580261H5.79639ZM7.28784 4.0717C5.63099 4.0717 4.28784 5.41485 4.28784 7.0717V42.9688C4.28784 44.6257 5.63099 45.9688 7.28785 45.9688H43.185C44.8418 45.9688 46.185 44.6257 46.185 42.9688V7.0717C46.185 5.41484 44.8418 4.0717 43.185 4.0717H7.28784Z" fill="#6B6B6C"/>
<path d="M16.4076 28.3084L23.3107 35.4588L32.6931 15.7547L43.9147 41.9135H6.55786L16.4076 28.3084Z" fill="#6B6B6C"/>
<circle cx="16.5812" cy="15.7549" r="4.42686" fill="#6B6B6C"/>
</svg>
