<svg width="21" height="21" viewBox="0 0 21 21" fill="none" xmlns="http://www.w3.org/2000/svg">
<path fill-rule="evenodd" clip-rule="evenodd" d="M5.22363 0.5C2.46221 0.5 0.223633 2.73858 0.223633 5.5V15.5C0.223633 18.2614 2.46221 20.5 5.22363 20.5H15.2236C17.9851 20.5 20.2236 18.2614 20.2236 15.5V5.5C20.2236 2.73858 17.9851 0.5 15.2236 0.5H5.22363ZM4.65216 1.92856C2.99531 1.92856 1.65216 3.2717 1.65216 4.92855V16.0714C1.65216 17.7283 2.9953 19.0714 4.65216 19.0714H15.795C17.4519 19.0714 18.795 17.7283 18.795 16.0714V4.92856C18.795 3.2717 17.4519 1.92856 15.795 1.92856H4.65216Z" fill="#6B6B6C"/>
<path d="M6.61123 11.8453L9.43573 14.7711L13.2747 6.70881L17.8662 17.4121H2.58105L6.61123 11.8453Z" fill="#6B6B6C"/>
<ellipse cx="6.68217" cy="6.70896" rx="1.81132" ry="1.81132" fill="#6B6B6C"/>
</svg>
