<svg width="74" height="73" viewBox="0 0 74 73" fill="none" xmlns="http://www.w3.org/2000/svg">
<rect x="0.395508" y="0.350739" width="72.9855" height="72.6493" rx="20" fill="#D9D9D9"/>
<path fill-rule="evenodd" clip-rule="evenodd" d="M27.8882 17.533C25.1268 17.533 22.8882 19.7716 22.8882 22.533V40.533C22.8882 43.2944 25.1268 45.533 27.8882 45.533H45.8882C48.6497 45.533 50.8882 43.2944 50.8882 40.533V22.533C50.8882 19.7716 48.6497 17.533 45.8882 17.533H27.8882ZM27.8882 19.533C26.2314 19.533 24.8882 20.8762 24.8882 22.533V40.533C24.8882 42.1899 26.2314 43.533 27.8882 43.533H45.8882C47.5451 43.533 48.8882 42.1899 48.8882 40.533V22.533C48.8882 20.8762 47.5451 19.533 45.8882 19.533H27.8882Z" fill="#6B6B6C"/>
<path d="M26.8414 51.9338V61.8869H24.9615V51.9338H26.8414ZM31.2328 56.008V61.8869H29.4281V54.4904H31.1302L31.2328 56.008ZM30.9662 57.9221H30.4125C30.4125 57.4071 30.474 56.9332 30.597 56.5002C30.7246 56.0673 30.9115 55.6913 31.1576 55.3723C31.4037 55.0487 31.7067 54.7981 32.0668 54.6203C32.4313 54.4426 32.8529 54.3537 33.3314 54.3537C33.6641 54.3537 33.9694 54.4039 34.2474 54.5041C34.5254 54.5998 34.7647 54.7525 34.9652 54.9621C35.1703 55.1672 35.3275 55.4361 35.4369 55.7688C35.5463 56.0969 35.6009 56.4911 35.6009 56.9514V61.8869H33.7963V57.136C33.7963 56.7896 33.7461 56.5184 33.6459 56.3225C33.5502 56.1265 33.4112 55.9898 33.2289 55.9123C33.0466 55.8303 32.8278 55.7893 32.5726 55.7893C32.2901 55.7893 32.0463 55.8462 31.8412 55.9602C31.6407 56.0695 31.4743 56.2222 31.3422 56.4182C31.2145 56.6141 31.1188 56.8397 31.055 57.0949C30.9958 57.3501 30.9662 57.6259 30.9662 57.9221ZM35.4642 57.5871L34.7191 57.7238C34.7237 57.259 34.7875 56.8238 34.9105 56.4182C35.0336 56.008 35.2136 55.6503 35.4505 55.3449C35.6921 55.035 35.9906 54.7935 36.3461 54.6203C36.7061 54.4426 37.1208 54.3537 37.5902 54.3537C37.9548 54.3537 38.2829 54.4061 38.5746 54.511C38.8708 54.6112 39.1237 54.773 39.3334 54.9963C39.543 55.2151 39.7025 55.4999 39.8119 55.8508C39.9258 56.2017 39.9828 56.6301 39.9828 57.136V61.8869H38.1644V57.1291C38.1644 56.7691 38.1143 56.4934 38.014 56.302C37.9183 56.1106 37.7793 55.9784 37.597 55.9055C37.4147 55.828 37.2005 55.7893 36.9545 55.7893C36.7038 55.7893 36.4851 55.8371 36.2982 55.9328C36.1159 56.024 35.961 56.1516 35.8334 56.3156C35.7103 56.4797 35.6169 56.6711 35.5531 56.8899C35.4938 57.1041 35.4642 57.3365 35.4642 57.5871ZM47.006 54.4904H48.6466V61.6613C48.6466 62.3313 48.5008 62.8987 48.2091 63.3635C47.922 63.8329 47.5187 64.1884 46.9992 64.4299C46.4797 64.676 45.8758 64.799 45.1877 64.799C44.8914 64.799 44.5701 64.758 44.2238 64.676C43.882 64.594 43.5516 64.4641 43.2326 64.2863C42.9181 64.1132 42.6561 63.8876 42.4464 63.6096L43.2599 62.5432C43.506 62.8303 43.784 63.0468 44.0939 63.1926C44.4038 63.343 44.7388 63.4182 45.0988 63.4182C45.4634 63.4182 45.7733 63.3498 46.0285 63.2131C46.2882 63.0809 46.4865 62.885 46.6232 62.6252C46.7645 62.37 46.8351 62.0556 46.8351 61.6819V56.1789L47.006 54.4904ZM42.0089 58.2776V58.134C42.0089 57.5689 42.0773 57.0562 42.214 56.5959C42.3507 56.1311 42.5467 55.7323 42.8019 55.3996C43.0617 55.0669 43.3739 54.8095 43.7384 54.6272C44.1076 54.4449 44.5223 54.3537 44.9826 54.3537C45.4702 54.3537 45.8804 54.4426 46.213 54.6203C46.5503 54.7981 46.8283 55.051 47.047 55.3791C47.2703 55.7072 47.4435 56.0969 47.5666 56.5481C47.6942 56.9947 47.7922 57.4869 47.8605 58.0246V58.4143C47.7967 58.9384 47.6942 59.4192 47.5529 59.8567C47.4162 60.2942 47.2339 60.677 47.006 61.0051C46.7782 61.3287 46.4956 61.5793 46.1584 61.757C45.8211 61.9348 45.4246 62.0237 44.9689 62.0237C44.5132 62.0237 44.103 61.9302 43.7384 61.7434C43.3739 61.5565 43.0617 61.2945 42.8019 60.9572C42.5467 60.62 42.3507 60.2235 42.214 59.7678C42.0773 59.3121 42.0089 58.8153 42.0089 58.2776ZM43.8136 58.134V58.2776C43.8136 58.5966 43.8455 58.8951 43.9093 59.1731C43.9731 59.4511 44.0711 59.6972 44.2033 59.9113C44.3354 60.121 44.5018 60.285 44.7023 60.4035C44.9028 60.522 45.1421 60.5813 45.4201 60.5813C45.7938 60.5813 46.0991 60.5038 46.3361 60.3488C46.5776 60.1893 46.7599 59.9729 46.883 59.6994C47.0106 59.4214 47.0926 59.1093 47.1291 58.7629V57.6897C47.1063 57.4162 47.0561 57.1633 46.9787 56.9309C46.9058 56.6985 46.8032 56.4979 46.6711 56.3293C46.5389 56.1607 46.3703 56.0285 46.1652 55.9328C45.9601 55.8371 45.7163 55.7893 45.4338 55.7893C45.1603 55.7893 44.9211 55.8508 44.716 55.9738C44.5109 56.0923 44.3423 56.2587 44.2101 56.4729C44.078 56.6871 43.9777 56.9354 43.9093 57.218C43.8455 57.5005 43.8136 57.8059 43.8136 58.134Z" fill="#6B6B6C"/>
<path d="M31.8646 33.3885L35.8189 37.4844L41.1934 26.1973L47.6215 41.1819H26.2224L31.8646 33.3885Z" fill="#6B6B6C"/>
<circle cx="31.9641" cy="26.1973" r="2.53584" fill="#6B6B6C"/>
</svg>
