<svg width="27" height="26" viewBox="0 0 27 26" fill="none" xmlns="http://www.w3.org/2000/svg">
<path fill-rule="evenodd" clip-rule="evenodd" d="M5.4397 0C2.67827 0 0.439697 2.23858 0.439697 5V21C0.439697 23.7614 2.67827 26 5.4397 26H21.4397C24.2011 26 26.4397 23.7614 26.4397 21V5C26.4397 2.23858 24.2011 0 21.4397 0H5.4397ZM5.29688 1.85716C3.64002 1.85716 2.29688 3.20031 2.29688 4.85716V21.1429C2.29688 22.7997 3.64002 24.1429 5.29688 24.1429H21.5826C23.2394 24.1429 24.5826 22.7997 24.5826 21.1429V4.85716C24.5826 3.20031 23.2394 1.85716 21.5826 1.85716H5.29688Z" fill="#6B6B6C"/>
<path d="M8.74356 14.749L12.4154 18.5525L17.406 8.07154L23.375 21.9858H3.50433L8.74356 14.749Z" fill="#6B6B6C"/>
<ellipse cx="8.83585" cy="8.07157" rx="2.35471" ry="2.35471" fill="#6B6B6C"/>
</svg>
